{
    "patcher": {
        "fileversion": 1,
        "appversion": {
            "major": 9,
            "minor": 1,
            "revision": 0,
            "architecture": "x64",
            "modernui": 1
        },
        "classnamespace": "box",
        "rect": [ 34.0, 100.0, 1444.0, 848.0 ],
        "openinpresentation": 1,
        "integercoordinates": 1,
        "boxes": [
            {
                "box": {
                    "id": "obj-30",
                    "maxclass": "message",
                    "numinlets": 2,
                    "numoutlets": 1,
                    "outlettype": [ "" ],
                    "patching_rect": [ 915.0, 471.0, 41.0, 22.0 ],
                    "text": "set $1"
                }
            },
            {
                "box": {
                    "id": "obj-37",
                    "maxclass": "button",
                    "numinlets": 1,
                    "numoutlets": 1,
                    "outlettype": [ "bang" ],
                    "parameter_enable": 0,
                    "patching_rect": [ 1227.0, 77.0, 24.0, 24.0 ]
                }
            },
            {
                "box": {
                    "id": "obj-23",
                    "maxclass": "newobj",
                    "numinlets": 2,
                    "numoutlets": 1,
                    "outlettype": [ "float" ],
                    "patching_rect": [ 1196.9523748159409, 312.095228433609, 51.0, 22.0 ],
                    "text": "pow 1.5"
                }
            },
            {
                "box": {
                    "id": "obj-21",
                    "maxclass": "newobj",
                    "numinlets": 2,
                    "numoutlets": 1,
                    "outlettype": [ "float" ],
                    "patching_rect": [ 1141.0, 340.4761531352997, 31.0, 22.0 ],
                    "text": "* -8."
                }
            },
            {
                "box": {
                    "id": "obj-20",
                    "maxclass": "newobj",
                    "numinlets": 2,
                    "numoutlets": 1,
                    "outlettype": [ "float" ],
                    "patching_rect": [ 1141.0, 312.095228433609, 51.0, 22.0 ],
                    "text": "pow 1.5"
                }
            },
            {
                "box": {
                    "id": "obj-19",
                    "maxclass": "newobj",
                    "numinlets": 1,
                    "numoutlets": 1,
                    "outlettype": [ "float" ],
                    "patching_rect": [ 1141.0, 283.52380299568176, 41.0, 22.0 ],
                    "text": "abs 0."
                }
            },
            {
                "box": {
                    "id": "obj-18",
                    "maxclass": "newobj",
                    "numinlets": 3,
                    "numoutlets": 2,
                    "outlettype": [ "float", "float" ],
                    "patching_rect": [ 1141.0, 257.3333296775818, 74.95237481594086, 22.0 ],
                    "text": "split -1. 0."
                }
            },
            {
                "box": {
                    "id": "obj-92",
                    "maxclass": "newobj",
                    "numinlets": 2,
                    "numoutlets": 2,
                    "outlettype": [ "", "float" ],
                    "patcher": {
                        "fileversion": 1,
                        "appversion": {
                            "major": 9,
                            "minor": 1,
                            "revision": 0,
                            "architecture": "x64",
                            "modernui": 1
                        },
                        "classnamespace": "box",
                        "rect": [ 59.0, 119.0, 640.0, 480.0 ],
                        "integercoordinates": 1,
                        "boxes": [
                            {
                                "box": {
                                    "id": "obj-2",
                                    "maxclass": "newobj",
                                    "numinlets": 2,
                                    "numoutlets": 2,
                                    "outlettype": [ "", "" ],
                                    "patching_rect": [ 192.0, 193.0, 77.0, 22.0 ],
                                    "text": "route symbol"
                                }
                            },
                            {
                                "box": {
                                    "id": "obj-7",
                                    "maxclass": "message",
                                    "numinlets": 2,
                                    "numoutlets": 1,
                                    "outlettype": [ "" ],
                                    "patching_rect": [ 192.0, 128.0, 29.5, 22.0 ],
                                    "text": "$3"
                                }
                            },
                            {
                                "box": {
                                    "id": "obj-5",
                                    "maxclass": "newobj",
                                    "numinlets": 1,
                                    "numoutlets": 1,
                                    "outlettype": [ "" ],
                                    "patching_rect": [ 285.0, 228.0, 101.0, 22.0 ],
                                    "text": "prepend linecolor"
                                }
                            },
                            {
                                "box": {
                                    "id": "obj-4",
                                    "maxclass": "newobj",
                                    "numinlets": 1,
                                    "numoutlets": 1,
                                    "outlettype": [ "" ],
                                    "patching_rect": [ 192.0, 228.0, 82.0, 22.0 ],
                                    "text": "prepend color"
                                }
                            },
                            {
                                "box": {
                                    "coll_data": {
                                        "count": 4,
                                        "data": [
                                            {
                                                "key": "color1",
                                                "value": [ "live_display_line_one" ]
                                            },
                                            {
                                                "key": "color2",
                                                "value": [ "live_value_arc" ]
                                            },
                                            {
                                                "key": "color3",
                                                "value": [ "live_display_handle_two" ]
                                            },
                                            {
                                                "key": "inactive",
                                                "value": [ "live_value_arc_zombie" ]
                                            }
                                        ]
                                    },
                                    "id": "obj-30",
                                    "maxclass": "newobj",
                                    "numinlets": 1,
                                    "numoutlets": 4,
                                    "outlettype": [ "", "", "", "" ],
                                    "patching_rect": [ 192.0, 169.0, 62.0, 22.0 ],
                                    "saved_object_attributes": {
                                        "embed": 1,
                                        "precision": 6
                                    },
                                    "text": "coll colors"
                                }
                            },
                            {
                                "box": {
                                    "coll_data": {
                                        "count": 10,
                                        "data": [
                                            {
                                                "key": 1,
                                                "value": [ 0.1, 0.25, "color1", "q" ]
                                            },
                                            {
                                                "key": 2,
                                                "value": [ 0.3, 0.25, "color2", "w" ]
                                            },
                                            {
                                                "key": 3,
                                                "value": [ 0.5, 0.25, "color3", "e" ]
                                            },
                                            {
                                                "key": 4,
                                                "value": [ 0.7, 0.25, "color1", "r" ]
                                            },
                                            {
                                                "key": 5,
                                                "value": [ 0.9, 0.25, "color2", "t" ]
                                            },
                                            {
                                                "key": 6,
                                                "value": [ 0.1, 0.75, "color3", "y" ]
                                            },
                                            {
                                                "key": 7,
                                                "value": [ 0.3, 0.75, "color1", "u" ]
                                            },
                                            {
                                                "key": 8,
                                                "value": [ 0.5, 0.75, "color2", "i" ]
                                            },
                                            {
                                                "key": 9,
                                                "value": [ 0.7, 0.75, "color3", "o" ]
                                            },
                                            {
                                                "key": 10,
                                                "value": [ 0.9, 0.75, "color1", "p" ]
                                            }
                                        ]
                                    },
                                    "id": "obj-1",
                                    "maxclass": "newobj",
                                    "numinlets": 1,
                                    "numoutlets": 4,
                                    "outlettype": [ "", "", "", "" ],
                                    "patching_rect": [ 192.0, 100.0, 97.0, 22.0 ],
                                    "saved_object_attributes": {
                                        "embed": 1,
                                        "precision": 6
                                    },
                                    "text": "coll view_default"
                                }
                            },
                            {
                                "box": {
                                    "id": "obj-85",
                                    "maxclass": "newobj",
                                    "numinlets": 2,
                                    "numoutlets": 1,
                                    "outlettype": [ "float" ],
                                    "patching_rect": [ 50.0, 261.0, 47.0, 22.0 ],
                                    "text": "* 1000."
                                }
                            },
                            {
                                "box": {
                                    "id": "obj-83",
                                    "maxclass": "newobj",
                                    "numinlets": 2,
                                    "numoutlets": 1,
                                    "outlettype": [ "" ],
                                    "patching_rect": [ 50.0, 330.0, 70.0, 22.0 ],
                                    "text": "pack f f"
                                }
                            },
                            {
                                "box": {
                                    "id": "obj-79",
                                    "maxclass": "newobj",
                                    "numinlets": 1,
                                    "numoutlets": 2,
                                    "outlettype": [ "float", "float" ],
                                    "patching_rect": [ 50.0, 228.0, 109.0, 22.0 ],
                                    "text": "t f f"
                                }
                            },
                            {
                                "box": {
                                    "id": "obj-78",
                                    "maxclass": "newobj",
                                    "numinlets": 2,
                                    "numoutlets": 1,
                                    "outlettype": [ "float" ],
                                    "patching_rect": [ 101.0, 261.0, 47.0, 22.0 ],
                                    "text": "* 1000."
                                }
                            },
                            {
                                "box": {
                                    "id": "obj-62",
                                    "maxclass": "newobj",
                                    "numinlets": 2,
                                    "numoutlets": 1,
                                    "outlettype": [ "int" ],
                                    "patching_rect": [ 50.0, 160.0, 29.5, 22.0 ],
                                    "text": "- 1"
                                }
                            },
                            {
                                "box": {
                                    "id": "obj-39",
                                    "maxclass": "newobj",
                                    "numinlets": 2,
                                    "numoutlets": 1,
                                    "outlettype": [ "int" ],
                                    "patching_rect": [ 50.0, 134.0, 29.5, 22.0 ],
                                    "text": "i"
                                }
                            },
                            {
                                "box": {
                                    "id": "obj-24",
                                    "maxclass": "newobj",
                                    "numinlets": 3,
                                    "numoutlets": 1,
                                    "outlettype": [ "float" ],
                                    "patching_rect": [ 50.0, 196.0, 120.0, 22.0 ],
                                    "text": "peek~ envelope_pos"
                                }
                            },
                            {
                                "box": {
                                    "id": "obj-18",
                                    "maxclass": "newobj",
                                    "numinlets": 0,
                                    "numoutlets": 1,
                                    "outlettype": [ "" ],
                                    "patching_rect": [ 50.0, 100.0, 39.0, 22.0 ],
                                    "text": "r click"
                                }
                            },
                            {
                                "box": {
                                    "comment": "",
                                    "id": "obj-88",
                                    "index": 1,
                                    "maxclass": "inlet",
                                    "numinlets": 0,
                                    "numoutlets": 1,
                                    "outlettype": [ "" ],
                                    "patching_rect": [ 60.0, 40.0, 30.0, 30.0 ]
                                }
                            },
                            {
                                "box": {
                                    "comment": "",
                                    "id": "obj-89",
                                    "index": 2,
                                    "maxclass": "inlet",
                                    "numinlets": 0,
                                    "numoutlets": 1,
                                    "outlettype": [ "float" ],
                                    "patching_rect": [ 101.0, 40.0, 30.0, 30.0 ]
                                }
                            },
                            {
                                "box": {
                                    "comment": "",
                                    "id": "obj-90",
                                    "index": 2,
                                    "maxclass": "outlet",
                                    "numinlets": 1,
                                    "numoutlets": 0,
                                    "patching_rect": [ 140.0, 392.0, 30.0, 30.0 ]
                                }
                            },
                            {
                                "box": {
                                    "comment": "",
                                    "id": "obj-91",
                                    "index": 1,
                                    "maxclass": "outlet",
                                    "numinlets": 1,
                                    "numoutlets": 0,
                                    "patching_rect": [ 50.0, 392.0, 30.0, 30.0 ]
                                }
                            }
                        ],
                        "lines": [
                            {
                                "patchline": {
                                    "destination": [ "obj-7", 0 ],
                                    "source": [ "obj-1", 0 ]
                                }
                            },
                            {
                                "patchline": {
                                    "destination": [ "obj-39", 0 ],
                                    "source": [ "obj-18", 0 ]
                                }
                            },
                            {
                                "patchline": {
                                    "destination": [ "obj-4", 0 ],
                                    "order": 1,
                                    "source": [ "obj-2", 0 ]
                                }
                            },
                            {
                                "patchline": {
                                    "destination": [ "obj-5", 0 ],
                                    "order": 0,
                                    "source": [ "obj-2", 0 ]
                                }
                            },
                            {
                                "patchline": {
                                    "destination": [ "obj-79", 0 ],
                                    "source": [ "obj-24", 0 ]
                                }
                            },
                            {
                                "patchline": {
                                    "destination": [ "obj-2", 0 ],
                                    "source": [ "obj-30", 0 ]
                                }
                            },
                            {
                                "patchline": {
                                    "destination": [ "obj-62", 0 ],
                                    "source": [ "obj-39", 0 ]
                                }
                            },
                            {
                                "patchline": {
                                    "destination": [ "obj-91", 0 ],
                                    "source": [ "obj-4", 0 ]
                                }
                            },
                            {
                                "patchline": {
                                    "destination": [ "obj-90", 0 ],
                                    "source": [ "obj-5", 0 ]
                                }
                            },
                            {
                                "patchline": {
                                    "destination": [ "obj-24", 0 ],
                                    "source": [ "obj-62", 0 ]
                                }
                            },
                            {
                                "patchline": {
                                    "destination": [ "obj-30", 0 ],
                                    "source": [ "obj-7", 0 ]
                                }
                            },
                            {
                                "patchline": {
                                    "destination": [ "obj-83", 1 ],
                                    "source": [ "obj-78", 0 ]
                                }
                            },
                            {
                                "patchline": {
                                    "destination": [ "obj-85", 0 ],
                                    "source": [ "obj-79", 0 ]
                                }
                            },
                            {
                                "patchline": {
                                    "destination": [ "obj-90", 0 ],
                                    "source": [ "obj-79", 1 ]
                                }
                            },
                            {
                                "patchline": {
                                    "destination": [ "obj-91", 0 ],
                                    "source": [ "obj-83", 0 ]
                                }
                            },
                            {
                                "patchline": {
                                    "destination": [ "obj-83", 0 ],
                                    "source": [ "obj-85", 0 ]
                                }
                            },
                            {
                                "patchline": {
                                    "destination": [ "obj-1", 0 ],
                                    "order": 0,
                                    "source": [ "obj-88", 0 ]
                                }
                            },
                            {
                                "patchline": {
                                    "destination": [ "obj-39", 1 ],
                                    "order": 1,
                                    "source": [ "obj-88", 0 ]
                                }
                            },
                            {
                                "patchline": {
                                    "destination": [ "obj-78", 0 ],
                                    "source": [ "obj-89", 0 ]
                                }
                            }
                        ]
                    },
                    "patching_rect": [ 903.0, 188.0, 60.0, 22.0 ],
                    "text": "p follower"
                }
            },
            {
                "box": {
                    "bgcolor": [ 0.168627450980392, 0.168627450980392, 0.168627450980392, 0.0 ],
                    "color": [ 0.594473705410263, 0.720560630419913, 0.928309050695498, 1.0 ],
                    "elementcolor": [ 1.0, 0.611764705882353, 0.0, 1.0 ],
                    "id": "obj-70",
                    "ignoreclick": 1,
                    "invisiblebkgnd": 1,
                    "maxclass": "pictslider",
                    "numinlets": 2,
                    "numoutlets": 2,
                    "outlettype": [ "int", "int" ],
                    "parameter_enable": 0,
                    "patching_rect": [ 903.0, 224.0, 200.0, 100.0 ],
                    "presentation": 1,
                    "presentation_rect": [ 204.0, 5.0, 167.0, 82.0 ],
                    "rightvalue": 1000,
                    "saved_attribute_attributes": {
                        "color": {
                            "expression": "themecolor.live_value_arc"
                        }
                    },
                    "topvalue": 1000
                }
            },
            {
                "box": {
                    "id": "obj-87",
                    "maxclass": "newobj",
                    "numinlets": 1,
                    "numoutlets": 2,
                    "outlettype": [ "", "" ],
                    "patching_rect": [ 1068.2857146263123, 135.0, 67.0, 22.0 ],
                    "save": [ "#N", "thispatcher", ";", "#Q", "end", ";" ],
                    "text": "thispatcher"
                }
            },
            {
                "box": {
                    "id": "obj-86",
                    "maxclass": "message",
                    "numinlets": 2,
                    "numoutlets": 1,
                    "outlettype": [ "" ],
                    "patching_rect": [ 1068.2857146263123, 108.0, 68.0, 22.0 ],
                    "text": "offset $1 0."
                }
            },
            {
                "box": {
                    "id": "obj-84",
                    "maxclass": "newobj",
                    "numinlets": 2,
                    "numoutlets": 1,
                    "outlettype": [ "int" ],
                    "patching_rect": [ 1068.2857146263123, 81.0, 41.0, 22.0 ],
                    "text": "* -200"
                }
            },
            {
                "box": {
                    "id": "obj-82",
                    "maxclass": "newobj",
                    "numinlets": 1,
                    "numoutlets": 0,
                    "patching_rect": [ 964.0, 547.0, 75.0, 22.0 ],
                    "text": "s voice_msg"
                }
            },
            {
                "box": {
                    "id": "obj-81",
                    "maxclass": "newobj",
                    "numinlets": 1,
                    "numoutlets": 1,
                    "outlettype": [ "" ],
                    "patching_rect": [ 964.0, 516.0, 63.0, 22.0 ],
                    "text": "prepend 1"
                }
            },
            {
                "box": {
                    "id": "obj-80",
                    "maxclass": "newobj",
                    "numinlets": 1,
                    "numoutlets": 1,
                    "outlettype": [ "" ],
                    "patching_rect": [ 1141.0, 428.5713815689087, 132.0, 22.0 ],
                    "text": "prepend envelope_rate"
                }
            },
            {
                "box": {
                    "id": "obj-64",
                    "maxclass": "newobj",
                    "numinlets": 1,
                    "numoutlets": 2,
                    "outlettype": [ "int", "float" ],
                    "patching_rect": [ 1141.0, 373.80948281288147, 44.0, 22.0 ],
                    "text": "t 2 f"
                }
            },
            {
                "box": {
                    "id": "obj-63",
                    "maxclass": "newobj",
                    "numinlets": 2,
                    "numoutlets": 1,
                    "outlettype": [ "float" ],
                    "patching_rect": [ 1141.0, 402.3809082508087, 44.0, 22.0 ],
                    "text": "pow 1."
                }
            },
            {
                "box": {
                    "id": "obj-57",
                    "maxclass": "newobj",
                    "numinlets": 2,
                    "numoutlets": 1,
                    "outlettype": [ "float" ],
                    "patching_rect": [ 1196.9523748159409, 340.4761531352997, 29.5, 22.0 ],
                    "text": "* 8."
                }
            },
            {
                "box": {
                    "id": "obj-45",
                    "maxclass": "live.slider",
                    "numinlets": 1,
                    "numoutlets": 2,
                    "orientation": 1,
                    "outlettype": [ "", "float" ],
                    "parameter_enable": 1,
                    "patching_rect": [ 1141.0, 224.0, 116.0, 18.0 ],
                    "presentation": 1,
                    "presentation_rect": [ 204.0, 89.0, 167.0, 18.0 ],
                    "saved_attribute_attributes": {
                        "valueof": {
                            "parameter_linknames": 1,
                            "parameter_longname": "envelope_rate[1]",
                            "parameter_mmax": 1.0,
                            "parameter_mmin": -1.0,
                            "parameter_modmode": 3,
                            "parameter_shortname": "envelope_rate",
                            "parameter_type": 0,
                            "parameter_unitstyle": 1
                        }
                    },
                    "showname": 0,
                    "shownumber": 0,
                    "varname": "envelope_rate"
                }
            },
            {
                "box": {
                    "id": "obj-44",
                    "maxclass": "newobj",
                    "numinlets": 1,
                    "numoutlets": 1,
                    "outlettype": [ "" ],
                    "patching_rect": [ 964.0, 471.0, 105.0, 22.0 ],
                    "text": "prepend envelope"
                }
            },
            {
                "box": {
                    "id": "obj-43",
                    "maxclass": "newobj",
                    "numinlets": 1,
                    "numoutlets": 1,
                    "outlettype": [ "bang" ],
                    "patching_rect": [ 976.0, 161.0, 58.0, 22.0 ],
                    "text": "loadbang"
                }
            },
            {
                "box": {
                    "id": "obj-41",
                    "maxclass": "message",
                    "numinlets": 2,
                    "numoutlets": 1,
                    "outlettype": [ "" ],
                    "patching_rect": [ 976.0, 188.0, 127.0, 22.0 ],
                    "text": "clear, 0. 1., 1. 1., bang"
                }
            },
            {
                "box": {
                    "id": "obj-13",
                    "maxclass": "newobj",
                    "numinlets": 1,
                    "numoutlets": 1,
                    "outlettype": [ "bang" ],
                    "patching_rect": [ 1084.0, 331.0, 22.0, 22.0 ],
                    "text": "t b"
                }
            },
            {
                "box": {
                    "addpoints_with_curve": [ 0.0, 1.0, 0, 0.0, 0.49032258064516127, 0.4714285714285714, 0, 0.0, 1.0, 1.0, 0, 0.0 ],
                    "bgcolor": [ 0.079348079365577, 0.07934804057877, 0.079348050547289, 1.0 ],
                    "classic_curve": 0,
                    "clicksustain": 0,
                    "domain": 1.0,
                    "id": "obj-12",
                    "legend": 0,
                    "linecolor": [ 0.594473705410263, 0.720560630419913, 0.928309050695498, 1.0 ],
                    "maxclass": "function",
                    "mode": 1,
                    "numinlets": 1,
                    "numoutlets": 4,
                    "outlettype": [ "float", "", "", "bang" ],
                    "parameter_enable": 0,
                    "patching_rect": [ 903.0, 224.0, 200.0, 100.0 ],
                    "presentation": 1,
                    "presentation_rect": [ 204.0, 5.0, 167.0, 82.0 ],
                    "saved_attribute_attributes": {
                        "bgcolor": {
                            "expression": "themecolor.live_lcd_bg"
                        },
                        "linecolor": {
                            "expression": "themecolor.live_value_arc"
                        }
                    },
                    "varname": "envelope"
                }
            },
            {
                "box": {
                    "id": "obj-7",
                    "maxclass": "newobj",
                    "numinlets": 1,
                    "numoutlets": 1,
                    "outlettype": [ "" ],
                    "patching_rect": [ 133.0, 703.0, 89.0, 22.0 ],
                    "text": "prepend sound"
                }
            },
            {
                "box": {
                    "id": "obj-34",
                    "maxclass": "newobj",
                    "numinlets": 2,
                    "numoutlets": 1,
                    "outlettype": [ "" ],
                    "patching_rect": [ 253.5, 473.0, 173.0, 22.0 ],
                    "text": "vexpr $f1 * $f2 @scalarmode 1"
                }
            },
            {
                "box": {
                    "id": "obj-26",
                    "maxclass": "newobj",
                    "numinlets": 1,
                    "numoutlets": 3,
                    "outlettype": [ "", "", "" ],
                    "patching_rect": [ 253.5, 427.0, 208.0, 22.0 ],
                    "saved_object_attributes": {
                        "initial": [ 0.0, 0.2 ],
                        "parameter_enable": 0,
                        "parameter_mappable": 0
                    },
                    "text": "pattr start_end @initial 0. 0.2 @thru 2",
                    "varname": "start_end"
                }
            },
            {
                "box": {
                    "id": "obj-16",
                    "maxclass": "newobj",
                    "numinlets": 2,
                    "numoutlets": 1,
                    "outlettype": [ "" ],
                    "patching_rect": [ 253.5, 389.0, 172.0, 22.0 ],
                    "text": "vexpr $f1 / $f2 @scalarmode 1"
                }
            },
            {
                "box": {
                    "id": "obj-53",
                    "maxclass": "newobj",
                    "numinlets": 1,
                    "numoutlets": 2,
                    "outlettype": [ "bang", "bang" ],
                    "patching_rect": [ 224.28571462631226, 77.0, 385.0, 22.0 ],
                    "text": "t b b"
                }
            },
            {
                "box": {
                    "id": "obj-49",
                    "maxclass": "newobj",
                    "numinlets": 1,
                    "numoutlets": 2,
                    "outlettype": [ "int", "int" ],
                    "patching_rect": [ 590.0, 322.0, 178.0, 22.0 ],
                    "text": "t i i"
                }
            },
            {
                "box": {
                    "id": "obj-48",
                    "maxclass": "message",
                    "numinlets": 2,
                    "numoutlets": 1,
                    "outlettype": [ "" ],
                    "patching_rect": [ 590.0, 709.0, 41.0, 22.0 ],
                    "text": "set $1"
                }
            },
            {
                "box": {
                    "id": "obj-54",
                    "maxclass": "newobj",
                    "numinlets": 2,
                    "numoutlets": 2,
                    "outlettype": [ "", "" ],
                    "patching_rect": [ 590.2857146263123, 167.0, 68.0, 22.0 ],
                    "text": "route index"
                }
            },
            {
                "box": {
                    "id": "obj-46",
                    "maxclass": "newobj",
                    "numinlets": 4,
                    "numoutlets": 2,
                    "outlettype": [ "", "" ],
                    "patcher": {
                        "fileversion": 1,
                        "appversion": {
                            "major": 9,
                            "minor": 1,
                            "revision": 0,
                            "architecture": "x64",
                            "modernui": 1
                        },
                        "classnamespace": "box",
                        "rect": [ 59.0, 119.0, 640.0, 829.0 ],
                        "integercoordinates": 1,
                        "boxes": [
                            {
                                "box": {
                                    "id": "obj-5",
                                    "maxclass": "newobj",
                                    "numinlets": 1,
                                    "numoutlets": 1,
                                    "outlettype": [ "" ],
                                    "patching_rect": [ 18.0, 422.0, 54.0, 22.0 ],
                                    "text": "deferlow"
                                }
                            },
                            {
                                "box": {
                                    "id": "obj-4",
                                    "maxclass": "newobj",
                                    "numinlets": 2,
                                    "numoutlets": 1,
                                    "outlettype": [ "bang" ],
                                    "patching_rect": [ 18.0, 370.0, 41.0, 22.0 ],
                                    "text": "del 25"
                                }
                            },
                            {
                                "box": {
                                    "id": "obj-3",
                                    "maxclass": "newobj",
                                    "numinlets": 1,
                                    "numoutlets": 2,
                                    "outlettype": [ "bang", "" ],
                                    "patching_rect": [ 18.0, 343.0, 54.0, 22.0 ],
                                    "text": "t b l"
                                }
                            },
                            {
                                "box": {
                                    "id": "obj-1",
                                    "maxclass": "newobj",
                                    "numinlets": 2,
                                    "numoutlets": 2,
                                    "outlettype": [ "", "" ],
                                    "patching_rect": [ 18.0, 394.0, 54.0, 22.0 ],
                                    "text": "zl.reg"
                                }
                            },
                            {
                                "box": {
                                    "comment": "",
                                    "id": "obj-2",
                                    "index": 2,
                                    "maxclass": "outlet",
                                    "numinlets": 1,
                                    "numoutlets": 0,
                                    "patching_rect": [ 217.0, 455.0, 30.0, 30.0 ]
                                }
                            },
                            {
                                "box": {
                                    "id": "obj-43",
                                    "maxclass": "newobj",
                                    "numinlets": 1,
                                    "numoutlets": 2,
                                    "outlettype": [ "int", "int" ],
                                    "patching_rect": [ 217.0, 71.0, 168.99997692526256, 22.0 ],
                                    "text": "t i i"
                                }
                            },
                            {
                                "box": {
                                    "id": "obj-60",
                                    "maxclass": "newobj",
                                    "numinlets": 2,
                                    "numoutlets": 2,
                                    "outlettype": [ "", "" ],
                                    "patching_rect": [ 217.0, 132.0, 55.0, 22.0 ],
                                    "text": "zl.slice 2"
                                }
                            },
                            {
                                "box": {
                                    "id": "obj-58",
                                    "maxclass": "newobj",
                                    "numinlets": 1,
                                    "numoutlets": 2,
                                    "outlettype": [ "", "" ],
                                    "patching_rect": [ 237.0, 169.0, 73.5, 22.0 ],
                                    "text": "unpack s s"
                                }
                            },
                            {
                                "box": {
                                    "coll_data": {
                                        "count": 10,
                                        "data": [
                                            {
                                                "key": 1,
                                                "value": [ 0.1, 0.25, "color1", "q" ]
                                            },
                                            {
                                                "key": 2,
                                                "value": [ 0.3, 0.25, "color2", "w" ]
                                            },
                                            {
                                                "key": 3,
                                                "value": [ 0.5, 0.25, "color3", "e" ]
                                            },
                                            {
                                                "key": 4,
                                                "value": [ 0.7, 0.25, "color1", "r" ]
                                            },
                                            {
                                                "key": 5,
                                                "value": [ 0.9, 0.25, "color2", "t" ]
                                            },
                                            {
                                                "key": 6,
                                                "value": [ 0.1, 0.75, "color3", "y" ]
                                            },
                                            {
                                                "key": 7,
                                                "value": [ 0.3, 0.75, "color1", "u" ]
                                            },
                                            {
                                                "key": 8,
                                                "value": [ 0.5, 0.75, "color2", "i" ]
                                            },
                                            {
                                                "key": 9,
                                                "value": [ 0.7, 0.75, "color3", "o" ]
                                            },
                                            {
                                                "key": 10,
                                                "value": [ 0.9, 0.75, "color1", "p" ]
                                            }
                                        ]
                                    },
                                    "id": "obj-56",
                                    "maxclass": "newobj",
                                    "numinlets": 1,
                                    "numoutlets": 4,
                                    "outlettype": [ "", "", "", "" ],
                                    "patching_rect": [ 217.0, 100.0, 97.0, 22.0 ],
                                    "saved_object_attributes": {
                                        "embed": 1,
                                        "precision": 6
                                    },
                                    "text": "coll view_default"
                                }
                            },
                            {
                                "box": {
                                    "id": "obj-46",
                                    "maxclass": "message",
                                    "numinlets": 2,
                                    "numoutlets": 1,
                                    "outlettype": [ "" ],
                                    "patching_rect": [ 367.1666666666667, 263.0, 41.0, 22.0 ],
                                    "text": "set $1"
                                }
                            },
                            {
                                "box": {
                                    "id": "obj-44",
                                    "maxclass": "newobj",
                                    "numinlets": 1,
                                    "numoutlets": 1,
                                    "outlettype": [ "" ],
                                    "patching_rect": [ 18.0, 313.0, 92.0, 22.0 ],
                                    "text": "prepend oual_1"
                                }
                            },
                            {
                                "box": {
                                    "id": "obj-41",
                                    "maxclass": "newobj",
                                    "numinlets": 1,
                                    "numoutlets": 1,
                                    "outlettype": [ "" ],
                                    "patching_rect": [ 367.0, 169.0, 91.0, 22.0 ],
                                    "text": "sprintf oual_%d"
                                }
                            },
                            {
                                "box": {
                                    "id": "obj-26",
                                    "maxclass": "newobj",
                                    "numinlets": 2,
                                    "numoutlets": 1,
                                    "outlettype": [ "float" ],
                                    "patching_rect": [ 127.0, 165.0, 34.0, 22.0 ],
                                    "text": "!- 1."
                                }
                            },
                            {
                                "box": {
                                    "id": "obj-16",
                                    "maxclass": "newobj",
                                    "numinlets": 1,
                                    "numoutlets": 2,
                                    "outlettype": [ "float", "float" ],
                                    "patching_rect": [ 18.0, 165.0, 73.66666666666674, 22.0 ],
                                    "text": "unpack f f"
                                }
                            },
                            {
                                "box": {
                                    "id": "obj-7",
                                    "linecount": 2,
                                    "maxclass": "newobj",
                                    "numinlets": 7,
                                    "numoutlets": 1,
                                    "outlettype": [ "dictionary" ],
                                    "patching_rect": [ 18.0, 206.0, 347.20000000000005, 35.0 ],
                                    "text": "dict.pack x: 0.1 y: 0.25 length: 0.2 state: 1 color: color1 text: q @triggers 2 3"
                                }
                            },
                            {
                                "box": {
                                    "comment": "",
                                    "id": "obj-34",
                                    "index": 1,
                                    "maxclass": "inlet",
                                    "numinlets": 0,
                                    "numoutlets": 1,
                                    "outlettype": [ "" ],
                                    "patching_rect": [ 18.0, 33.0, 30.0, 30.0 ]
                                }
                            },
                            {
                                "box": {
                                    "comment": "",
                                    "id": "obj-36",
                                    "index": 2,
                                    "maxclass": "inlet",
                                    "numinlets": 0,
                                    "numoutlets": 1,
                                    "outlettype": [ "" ],
                                    "patching_rect": [ 127.0, 33.0, 30.0, 30.0 ]
                                }
                            },
                            {
                                "box": {
                                    "comment": "",
                                    "id": "obj-37",
                                    "index": 3,
                                    "maxclass": "inlet",
                                    "numinlets": 0,
                                    "numoutlets": 1,
                                    "outlettype": [ "" ],
                                    "patching_rect": [ 182.0, 33.0, 30.0, 30.0 ]
                                }
                            },
                            {
                                "box": {
                                    "comment": "",
                                    "id": "obj-38",
                                    "index": 4,
                                    "maxclass": "inlet",
                                    "numinlets": 0,
                                    "numoutlets": 1,
                                    "outlettype": [ "int" ],
                                    "patching_rect": [ 217.0, 33.0, 30.0, 30.0 ]
                                }
                            },
                            {
                                "box": {
                                    "comment": "",
                                    "id": "obj-39",
                                    "index": 1,
                                    "maxclass": "outlet",
                                    "numinlets": 1,
                                    "numoutlets": 0,
                                    "patching_rect": [ 18.0, 455.0, 30.0, 30.0 ]
                                }
                            }
                        ],
                        "lines": [
                            {
                                "patchline": {
                                    "destination": [ "obj-5", 0 ],
                                    "source": [ "obj-1", 0 ]
                                }
                            },
                            {
                                "patchline": {
                                    "destination": [ "obj-7", 1 ],
                                    "source": [ "obj-16", 1 ]
                                }
                            },
                            {
                                "patchline": {
                                    "destination": [ "obj-7", 0 ],
                                    "source": [ "obj-16", 0 ]
                                }
                            },
                            {
                                "patchline": {
                                    "destination": [ "obj-7", 2 ],
                                    "source": [ "obj-26", 0 ]
                                }
                            },
                            {
                                "patchline": {
                                    "destination": [ "obj-1", 1 ],
                                    "source": [ "obj-3", 1 ]
                                }
                            },
                            {
                                "patchline": {
                                    "destination": [ "obj-4", 0 ],
                                    "source": [ "obj-3", 0 ]
                                }
                            },
                            {
                                "patchline": {
                                    "destination": [ "obj-16", 0 ],
                                    "source": [ "obj-34", 0 ]
                                }
                            },
                            {
                                "patchline": {
                                    "destination": [ "obj-26", 0 ],
                                    "source": [ "obj-36", 0 ]
                                }
                            },
                            {
                                "patchline": {
                                    "destination": [ "obj-7", 3 ],
                                    "source": [ "obj-37", 0 ]
                                }
                            },
                            {
                                "patchline": {
                                    "destination": [ "obj-43", 0 ],
                                    "source": [ "obj-38", 0 ]
                                }
                            },
                            {
                                "patchline": {
                                    "destination": [ "obj-1", 0 ],
                                    "source": [ "obj-4", 0 ]
                                }
                            },
                            {
                                "patchline": {
                                    "destination": [ "obj-46", 0 ],
                                    "source": [ "obj-41", 0 ]
                                }
                            },
                            {
                                "patchline": {
                                    "destination": [ "obj-41", 0 ],
                                    "source": [ "obj-43", 1 ]
                                }
                            },
                            {
                                "patchline": {
                                    "destination": [ "obj-56", 0 ],
                                    "source": [ "obj-43", 0 ]
                                }
                            },
                            {
                                "patchline": {
                                    "destination": [ "obj-3", 0 ],
                                    "source": [ "obj-44", 0 ]
                                }
                            },
                            {
                                "patchline": {
                                    "destination": [ "obj-44", 0 ],
                                    "source": [ "obj-46", 0 ]
                                }
                            },
                            {
                                "patchline": {
                                    "destination": [ "obj-39", 0 ],
                                    "source": [ "obj-5", 0 ]
                                }
                            },
                            {
                                "patchline": {
                                    "destination": [ "obj-60", 0 ],
                                    "source": [ "obj-56", 0 ]
                                }
                            },
                            {
                                "patchline": {
                                    "destination": [ "obj-7", 5 ],
                                    "source": [ "obj-58", 1 ]
                                }
                            },
                            {
                                "patchline": {
                                    "destination": [ "obj-7", 4 ],
                                    "source": [ "obj-58", 0 ]
                                }
                            },
                            {
                                "patchline": {
                                    "destination": [ "obj-2", 0 ],
                                    "source": [ "obj-60", 0 ]
                                }
                            },
                            {
                                "patchline": {
                                    "destination": [ "obj-58", 0 ],
                                    "source": [ "obj-60", 1 ]
                                }
                            },
                            {
                                "patchline": {
                                    "destination": [ "obj-44", 0 ],
                                    "source": [ "obj-7", 0 ]
                                }
                            }
                        ]
                    },
                    "patching_rect": [ 666.0, 604.0, 102.0, 22.0 ],
                    "text": "p panel_dict"
                }
            },
            {
                "box": {
                    "id": "obj-28",
                    "maxclass": "newobj",
                    "numinlets": 1,
                    "numoutlets": 0,
                    "patching_rect": [ 666.0, 664.0, 64.0, 22.0 ],
                    "text": "s to_panel"
                }
            },
            {
                "box": {
                    "id": "obj-42",
                    "maxclass": "message",
                    "numinlets": 2,
                    "numoutlets": 1,
                    "outlettype": [ "" ],
                    "patching_rect": [ 896.0, 604.0, 57.0, 22.0 ],
                    "text": "active $1"
                }
            },
            {
                "box": {
                    "id": "obj-40",
                    "maxclass": "newobj",
                    "numinlets": 1,
                    "numoutlets": 1,
                    "outlettype": [ "" ],
                    "patching_rect": [ 789.0, 706.0, 82.0, 22.0 ],
                    "text": "prepend state"
                }
            },
            {
                "box": {
                    "id": "obj-33",
                    "maxclass": "newobj",
                    "numinlets": 1,
                    "numoutlets": 1,
                    "outlettype": [ "" ],
                    "patching_rect": [ 435.53333349227904, 709.0, 106.0, 22.0 ],
                    "text": "prepend start_end"
                }
            },
            {
                "box": {
                    "id": "obj-59",
                    "maxclass": "newobj",
                    "numinlets": 1,
                    "numoutlets": 0,
                    "patching_rect": [ 435.53333349227904, 812.0, 75.0, 22.0 ],
                    "text": "s voice_msg"
                }
            },
            {
                "box": {
                    "id": "obj-55",
                    "maxclass": "newobj",
                    "numinlets": 1,
                    "numoutlets": 1,
                    "outlettype": [ "" ],
                    "patching_rect": [ 435.53333349227904, 771.0, 63.0, 22.0 ],
                    "text": "prepend 1"
                }
            },
            {
                "box": {
                    "id": "obj-51",
                    "maxclass": "newobj",
                    "numinlets": 1,
                    "numoutlets": 1,
                    "outlettype": [ "" ],
                    "patching_rect": [ 647.0, 706.0, 97.0, 22.0 ],
                    "text": "prepend position"
                }
            },
            {
                "box": {
                    "id": "obj-35",
                    "maxclass": "newobj",
                    "numinlets": 1,
                    "numoutlets": 2,
                    "outlettype": [ "", "" ],
                    "patching_rect": [ 590.2857146263123, 135.0, 126.0, 22.0 ],
                    "text": "patcherargs @index 1"
                }
            },
            {
                "box": {
                    "id": "obj-22",
                    "maxclass": "newobj",
                    "numinlets": 1,
                    "numoutlets": 3,
                    "outlettype": [ "", "", "" ],
                    "patching_rect": [ 646.6571429252625, 545.0, 77.0, 22.0 ],
                    "saved_object_attributes": {
                        "initial": [ 0.5, 0.5 ],
                        "parameter_enable": 0,
                        "parameter_mappable": 0
                    },
                    "text": "pattr position",
                    "varname": "position"
                }
            },
            {
                "box": {
                    "id": "obj-29",
                    "maxclass": "message",
                    "numinlets": 2,
                    "numoutlets": 1,
                    "outlettype": [ "" ],
                    "patching_rect": [ 122.0, 237.0, 67.0, 22.0 ],
                    "text": "snd_oual.1"
                }
            },
            {
                "box": {
                    "id": "obj-27",
                    "maxclass": "newobj",
                    "numinlets": 2,
                    "numoutlets": 2,
                    "outlettype": [ "bang", "" ],
                    "patching_rect": [ 122.0, 205.0, 37.0, 22.0 ],
                    "text": "sel 0."
                }
            },
            {
                "box": {
                    "id": "obj-249",
                    "maxclass": "newobj",
                    "numinlets": 1,
                    "numoutlets": 0,
                    "patching_rect": [ 24.0, 812.0, 87.0, 22.0 ],
                    "text": "s to_waveform"
                }
            },
            {
                "box": {
                    "id": "obj-15",
                    "maxclass": "newobj",
                    "numinlets": 1,
                    "numoutlets": 2,
                    "outlettype": [ "", "" ],
                    "patching_rect": [ 13.0, 154.0, 29.5, 22.0 ],
                    "text": "t l l"
                }
            },
            {
                "box": {
                    "id": "obj-11",
                    "maxclass": "newobj",
                    "numinlets": 1,
                    "numoutlets": 4,
                    "outlettype": [ "", "", "", "" ],
                    "patching_rect": [ 61.285714626312256, 19.0, 56.0, 22.0 ],
                    "restore": {
                        "am": [ 36.759873519747075 ],
                        "crush": [ 0.0 ],
                        "drive": [ 0.0 ],
                        "envelope": [ 1.0, 0.0, 1.0, 0.0, 1.0, 0, 0.0, 0.49032258064516127, 0.4714285714285714, 0, 0.0, 1.0, 1.0, 0, 0.0, "curve" ],
                        "envelope_rate": [ 0.017964071856287456 ],
                        "rand_pos": [ 57.480314960629876 ],
                        "srr": [ 0.0 ],
                        "transpose": [ 0.0 ]
                    },
                    "text": "autopattr",
                    "varname": "u255005185"
                }
            },
            {
                "box": {
                    "id": "obj-32",
                    "maxclass": "newobj",
                    "numinlets": 1,
                    "numoutlets": 1,
                    "outlettype": [ "" ],
                    "patching_rect": [ 23.5, 703.0, 105.0, 22.0 ],
                    "text": "prepend name set"
                }
            },
            {
                "box": {
                    "id": "obj-31",
                    "maxclass": "newobj",
                    "numinlets": 1,
                    "numoutlets": 1,
                    "outlettype": [ "" ],
                    "patching_rect": [ 253.5, 709.0, 106.0, 22.0 ],
                    "text": "prepend start_end"
                }
            },
            {
                "box": {
                    "id": "obj-25",
                    "maxclass": "newobj",
                    "numinlets": 1,
                    "numoutlets": 2,
                    "outlettype": [ "float", "bang" ],
                    "patching_rect": [ 243.0, 322.0, 29.5, 22.0 ],
                    "text": "t f b"
                }
            },
            {
                "box": {
                    "id": "obj-17",
                    "maxclass": "message",
                    "numinlets": 2,
                    "numoutlets": 1,
                    "outlettype": [ "" ],
                    "patching_rect": [ 122.0, 267.0, 75.0, 22.0 ],
                    "text": "set $1, bang"
                }
            },
            {
                "box": {
                    "id": "obj-14",
                    "maxclass": "newobj",
                    "numinlets": 1,
                    "numoutlets": 10,
                    "outlettype": [ "float", "list", "float", "float", "float", "float", "float", "", "int", "" ],
                    "patching_rect": [ 122.0, 295.0, 200.5, 22.0 ],
                    "text": "info~"
                }
            },
            {
                "box": {
                    "id": "obj-10",
                    "maxclass": "newobj",
                    "numinlets": 7,
                    "numoutlets": 7,
                    "outlettype": [ "", "", "", "", "", "", "" ],
                    "patching_rect": [ 13.285714626312256, 49.0, 1285.0, 22.0 ],
                    "text": "route sound bang start_end position state tab"
                }
            },
            {
                "box": {
                    "id": "obj-9",
                    "maxclass": "newobj",
                    "numinlets": 1,
                    "numoutlets": 3,
                    "outlettype": [ "", "", "" ],
                    "patching_rect": [ 13.0, 127.0, 173.0, 22.0 ],
                    "saved_object_attributes": {
                        "initial": [ "snd_oual.1" ],
                        "parameter_enable": 0,
                        "parameter_mappable": 0
                    },
                    "text": "pattr sound @initial snd_oual.1",
                    "varname": "sound"
                }
            },
            {
                "box": {
                    "comment": "",
                    "id": "obj-8",
                    "index": 1,
                    "maxclass": "inlet",
                    "numinlets": 0,
                    "numoutlets": 1,
                    "outlettype": [ "" ],
                    "patching_rect": [ 13.285714626312256, 11.0, 30.0, 30.0 ]
                }
            },
            {
                "box": {
                    "id": "obj-73",
                    "maxclass": "message",
                    "numinlets": 2,
                    "numoutlets": 1,
                    "outlettype": [ "" ],
                    "patching_rect": [ 1023.0, 715.0, 42.0, 22.0 ],
                    "text": "am $1"
                }
            },
            {
                "box": {
                    "id": "obj-72",
                    "maxclass": "message",
                    "numinlets": 2,
                    "numoutlets": 1,
                    "outlettype": [ "" ],
                    "patching_rect": [ 1141.0, 715.0, 75.0, 22.0 ],
                    "text": "rand_pos $1"
                }
            },
            {
                "box": {
                    "id": "obj-71",
                    "maxclass": "message",
                    "numinlets": 2,
                    "numoutlets": 1,
                    "outlettype": [ "" ],
                    "patching_rect": [ 1222.0, 715.0, 58.0, 22.0 ],
                    "text": "speed $1"
                }
            },
            {
                "box": {
                    "id": "obj-69",
                    "maxclass": "message",
                    "numinlets": 2,
                    "numoutlets": 1,
                    "outlettype": [ "" ],
                    "patching_rect": [ 958.0, 715.0, 51.0, 22.0 ],
                    "text": "drive $1"
                }
            },
            {
                "box": {
                    "id": "obj-68",
                    "maxclass": "message",
                    "numinlets": 2,
                    "numoutlets": 1,
                    "outlettype": [ "" ],
                    "patching_rect": [ 1075.0, 715.0, 59.0, 22.0 ],
                    "text": "bitrate $1"
                }
            },
            {
                "box": {
                    "id": "obj-67",
                    "maxclass": "message",
                    "numinlets": 2,
                    "numoutlets": 1,
                    "outlettype": [ "" ],
                    "patching_rect": [ 896.0, 715.0, 39.0, 22.0 ],
                    "text": "srr $1"
                }
            },
            {
                "box": {
                    "id": "obj-6",
                    "maxclass": "live.dial",
                    "needlemode": 2,
                    "numinlets": 1,
                    "numoutlets": 2,
                    "outlettype": [ "", "float" ],
                    "parameter_enable": 1,
                    "patching_rect": [ 1222.0, 651.0, 60.439563393592834, 48.0 ],
                    "presentation": 1,
                    "presentation_rect": [ 121.42857432365417, 55.000001311302185, 60.439563393592834, 48.0 ],
                    "saved_attribute_attributes": {
                        "valueof": {
                            "parameter_longname": "Transpose[2]",
                            "parameter_mmax": 12.0,
                            "parameter_mmin": -12.0,
                            "parameter_modmode": 3,
                            "parameter_shortname": "Transpose",
                            "parameter_type": 0,
                            "parameter_unitstyle": 1
                        }
                    },
                    "varname": "transpose"
                }
            },
            {
                "box": {
                    "id": "obj-5",
                    "maxclass": "live.dial",
                    "numinlets": 1,
                    "numoutlets": 2,
                    "outlettype": [ "", "float" ],
                    "parameter_enable": 1,
                    "patching_rect": [ 1141.0, 651.0, 60.439563393592834, 48.0 ],
                    "presentation": 1,
                    "presentation_rect": [ 60.71428716182709, 55.000001311302185, 60.439563393592834, 48.0 ],
                    "saved_attribute_attributes": {
                        "valueof": {
                            "parameter_longname": "Rand Pos[2]",
                            "parameter_mmax": 100.0,
                            "parameter_modmode": 3,
                            "parameter_shortname": "Rand Pos",
                            "parameter_type": 0,
                            "parameter_unitstyle": 5
                        }
                    },
                    "varname": "rand_pos"
                }
            },
            {
                "box": {
                    "id": "obj-4",
                    "maxclass": "live.dial",
                    "numinlets": 1,
                    "numoutlets": 2,
                    "outlettype": [ "", "float" ],
                    "parameter_enable": 1,
                    "patching_rect": [ 1081.0, 651.0, 60.439563393592834, 48.0 ],
                    "presentation": 1,
                    "presentation_rect": [ 0.0, 55.000001311302185, 60.439563393592834, 48.0 ],
                    "saved_attribute_attributes": {
                        "valueof": {
                            "parameter_exponent": 2.0,
                            "parameter_longname": "Crush[2]",
                            "parameter_mmax": 100.0,
                            "parameter_modmode": 3,
                            "parameter_shortname": "Crush",
                            "parameter_type": 0,
                            "parameter_unitstyle": 5
                        }
                    },
                    "varname": "crush"
                }
            },
            {
                "box": {
                    "id": "obj-3",
                    "maxclass": "live.dial",
                    "numinlets": 1,
                    "numoutlets": 2,
                    "outlettype": [ "", "float" ],
                    "parameter_enable": 1,
                    "patching_rect": [ 1019.0, 651.0, 60.439563393592834, 48.0 ],
                    "presentation": 1,
                    "presentation_rect": [ 121.42857432365417, 2.142857193946838, 60.439563393592834, 48.0 ],
                    "saved_attribute_attributes": {
                        "valueof": {
                            "parameter_exponent": 2.0,
                            "parameter_longname": "AM[2]",
                            "parameter_mmax": 100.0,
                            "parameter_modmode": 3,
                            "parameter_shortname": "AM",
                            "parameter_type": 0,
                            "parameter_unitstyle": 5
                        }
                    },
                    "varname": "am"
                }
            },
            {
                "box": {
                    "id": "obj-2",
                    "maxclass": "live.dial",
                    "numinlets": 1,
                    "numoutlets": 2,
                    "outlettype": [ "", "float" ],
                    "parameter_enable": 1,
                    "patching_rect": [ 958.0, 651.0, 60.439563393592834, 48.0 ],
                    "presentation": 1,
                    "presentation_rect": [ 60.71428716182709, 2.142857193946838, 60.439563393592834, 48.0 ],
                    "saved_attribute_attributes": {
                        "valueof": {
                            "parameter_exponent": 2.0,
                            "parameter_longname": "Drive[2]",
                            "parameter_mmax": 100.0,
                            "parameter_modmode": 3,
                            "parameter_shortname": "Drive",
                            "parameter_type": 0,
                            "parameter_unitstyle": 5
                        }
                    },
                    "varname": "drive"
                }
            },
            {
                "box": {
                    "id": "obj-1",
                    "maxclass": "live.dial",
                    "numinlets": 1,
                    "numoutlets": 2,
                    "outlettype": [ "", "float" ],
                    "parameter_enable": 1,
                    "patching_rect": [ 896.0, 651.0, 60.439563393592834, 48.0 ],
                    "presentation": 1,
                    "presentation_rect": [ 0.0, 2.142857193946838, 60.439563393592834, 48.0 ],
                    "saved_attribute_attributes": {
                        "valueof": {
                            "parameter_longname": "SRR[2]",
                            "parameter_mmax": 100.0,
                            "parameter_modmode": 3,
                            "parameter_shortname": "SRR",
                            "parameter_type": 0,
                            "parameter_unitstyle": 5
                        }
                    },
                    "varname": "srr"
                }
            }
        ],
        "lines": [
            {
                "patchline": {
                    "destination": [ "obj-67", 0 ],
                    "source": [ "obj-1", 1 ]
                }
            },
            {
                "patchline": {
                    "destination": [ "obj-16", 0 ],
                    "order": 1,
                    "source": [ "obj-10", 2 ]
                }
            },
            {
                "patchline": {
                    "destination": [ "obj-22", 0 ],
                    "source": [ "obj-10", 3 ]
                }
            },
            {
                "patchline": {
                    "destination": [ "obj-33", 0 ],
                    "order": 0,
                    "source": [ "obj-10", 2 ]
                }
            },
            {
                "patchline": {
                    "destination": [ "obj-40", 0 ],
                    "order": 1,
                    "source": [ "obj-10", 4 ]
                }
            },
            {
                "patchline": {
                    "destination": [ "obj-42", 0 ],
                    "midpoints": [ 866.7857146263123, 587.2857148647308, 905.5, 587.2857148647308 ],
                    "order": 0,
                    "source": [ "obj-10", 4 ]
                }
            },
            {
                "patchline": {
                    "destination": [ "obj-46", 2 ],
                    "midpoints": [ 866.7857146263123, 589.2857148647308, 730.8333333333334, 589.2857148647308 ],
                    "order": 2,
                    "source": [ "obj-10", 4 ]
                }
            },
            {
                "patchline": {
                    "destination": [ "obj-53", 0 ],
                    "source": [ "obj-10", 1 ]
                }
            },
            {
                "patchline": {
                    "destination": [ "obj-84", 0 ],
                    "source": [ "obj-10", 5 ]
                }
            },
            {
                "patchline": {
                    "destination": [ "obj-9", 0 ],
                    "source": [ "obj-10", 0 ]
                }
            },
            {
                "patchline": {
                    "destination": [ "obj-13", 0 ],
                    "source": [ "obj-12", 3 ]
                }
            },
            {
                "patchline": {
                    "destination": [ "obj-44", 0 ],
                    "source": [ "obj-12", 1 ]
                }
            },
            {
                "patchline": {
                    "destination": [ "obj-92", 1 ],
                    "midpoints": [ 912.5, 334.0, 890.0, 334.0, 890.0, 177.0, 953.5, 177.0 ],
                    "source": [ "obj-12", 0 ]
                }
            },
            {
                "patchline": {
                    "destination": [ "obj-12", 0 ],
                    "source": [ "obj-13", 0 ]
                }
            },
            {
                "patchline": {
                    "destination": [ "obj-25", 0 ],
                    "source": [ "obj-14", 6 ]
                }
            },
            {
                "patchline": {
                    "destination": [ "obj-27", 0 ],
                    "midpoints": [ 22.5, 184.5, 131.5, 184.5 ],
                    "source": [ "obj-15", 0 ]
                }
            },
            {
                "patchline": {
                    "destination": [ "obj-32", 0 ],
                    "order": 1,
                    "source": [ "obj-15", 1 ]
                }
            },
            {
                "patchline": {
                    "destination": [ "obj-7", 0 ],
                    "order": 0,
                    "source": [ "obj-15", 1 ]
                }
            },
            {
                "patchline": {
                    "destination": [ "obj-26", 0 ],
                    "order": 1,
                    "source": [ "obj-16", 0 ]
                }
            },
            {
                "patchline": {
                    "destination": [ "obj-46", 1 ],
                    "midpoints": [ 263.0, 418.0, 703.1666666666666, 418.0 ],
                    "order": 0,
                    "source": [ "obj-16", 0 ]
                }
            },
            {
                "patchline": {
                    "destination": [ "obj-14", 0 ],
                    "source": [ "obj-17", 0 ]
                }
            },
            {
                "patchline": {
                    "destination": [ "obj-19", 0 ],
                    "source": [ "obj-18", 0 ]
                }
            },
            {
                "patchline": {
                    "destination": [ "obj-23", 0 ],
                    "source": [ "obj-18", 1 ]
                }
            },
            {
                "patchline": {
                    "destination": [ "obj-20", 0 ],
                    "source": [ "obj-19", 0 ]
                }
            },
            {
                "patchline": {
                    "destination": [ "obj-69", 0 ],
                    "source": [ "obj-2", 1 ]
                }
            },
            {
                "patchline": {
                    "destination": [ "obj-21", 0 ],
                    "source": [ "obj-20", 0 ]
                }
            },
            {
                "patchline": {
                    "destination": [ "obj-64", 0 ],
                    "source": [ "obj-21", 0 ]
                }
            },
            {
                "patchline": {
                    "destination": [ "obj-46", 0 ],
                    "order": 0,
                    "source": [ "obj-22", 0 ]
                }
            },
            {
                "patchline": {
                    "destination": [ "obj-51", 0 ],
                    "order": 1,
                    "source": [ "obj-22", 0 ]
                }
            },
            {
                "patchline": {
                    "destination": [ "obj-57", 0 ],
                    "source": [ "obj-23", 0 ]
                }
            },
            {
                "patchline": {
                    "destination": [ "obj-16", 0 ],
                    "source": [ "obj-25", 1 ]
                }
            },
            {
                "patchline": {
                    "destination": [ "obj-16", 1 ],
                    "order": 1,
                    "source": [ "obj-25", 0 ]
                }
            },
            {
                "patchline": {
                    "destination": [ "obj-34", 1 ],
                    "order": 0,
                    "source": [ "obj-25", 0 ]
                }
            },
            {
                "patchline": {
                    "destination": [ "obj-34", 0 ],
                    "order": 1,
                    "source": [ "obj-26", 0 ]
                }
            },
            {
                "patchline": {
                    "destination": [ "obj-46", 1 ],
                    "midpoints": [ 263.0, 457.0, 703.1666666666666, 457.0 ],
                    "order": 0,
                    "source": [ "obj-26", 0 ]
                }
            },
            {
                "patchline": {
                    "destination": [ "obj-17", 0 ],
                    "source": [ "obj-27", 1 ]
                }
            },
            {
                "patchline": {
                    "destination": [ "obj-29", 0 ],
                    "source": [ "obj-27", 0 ]
                }
            },
            {
                "patchline": {
                    "destination": [ "obj-17", 0 ],
                    "source": [ "obj-29", 0 ]
                }
            },
            {
                "patchline": {
                    "destination": [ "obj-73", 0 ],
                    "source": [ "obj-3", 1 ]
                }
            },
            {
                "patchline": {
                    "destination": [ "obj-81", 0 ],
                    "source": [ "obj-30", 0 ]
                }
            },
            {
                "patchline": {
                    "destination": [ "obj-249", 0 ],
                    "source": [ "obj-31", 0 ]
                }
            },
            {
                "patchline": {
                    "destination": [ "obj-249", 0 ],
                    "source": [ "obj-32", 0 ]
                }
            },
            {
                "patchline": {
                    "destination": [ "obj-55", 0 ],
                    "source": [ "obj-33", 0 ]
                }
            },
            {
                "patchline": {
                    "destination": [ "obj-31", 0 ],
                    "order": 1,
                    "source": [ "obj-34", 0 ]
                }
            },
            {
                "patchline": {
                    "destination": [ "obj-33", 0 ],
                    "order": 0,
                    "source": [ "obj-34", 0 ]
                }
            },
            {
                "patchline": {
                    "destination": [ "obj-54", 0 ],
                    "source": [ "obj-35", 1 ]
                }
            },
            {
                "patchline": {
                    "destination": [ "obj-35", 0 ],
                    "source": [ "obj-37", 0 ]
                }
            },
            {
                "patchline": {
                    "destination": [ "obj-68", 0 ],
                    "source": [ "obj-4", 1 ]
                }
            },
            {
                "patchline": {
                    "destination": [ "obj-55", 0 ],
                    "source": [ "obj-40", 0 ]
                }
            },
            {
                "patchline": {
                    "destination": [ "obj-12", 0 ],
                    "source": [ "obj-41", 0 ]
                }
            },
            {
                "patchline": {
                    "destination": [ "obj-1", 0 ],
                    "order": 5,
                    "source": [ "obj-42", 0 ]
                }
            },
            {
                "patchline": {
                    "destination": [ "obj-2", 0 ],
                    "order": 4,
                    "source": [ "obj-42", 0 ]
                }
            },
            {
                "patchline": {
                    "destination": [ "obj-3", 0 ],
                    "order": 3,
                    "source": [ "obj-42", 0 ]
                }
            },
            {
                "patchline": {
                    "destination": [ "obj-4", 0 ],
                    "order": 2,
                    "source": [ "obj-42", 0 ]
                }
            },
            {
                "patchline": {
                    "destination": [ "obj-5", 0 ],
                    "order": 1,
                    "source": [ "obj-42", 0 ]
                }
            },
            {
                "patchline": {
                    "destination": [ "obj-6", 0 ],
                    "order": 0,
                    "source": [ "obj-42", 0 ]
                }
            },
            {
                "patchline": {
                    "destination": [ "obj-41", 0 ],
                    "source": [ "obj-43", 0 ]
                }
            },
            {
                "patchline": {
                    "destination": [ "obj-81", 0 ],
                    "source": [ "obj-44", 0 ]
                }
            },
            {
                "patchline": {
                    "destination": [ "obj-18", 0 ],
                    "source": [ "obj-45", 0 ]
                }
            },
            {
                "patchline": {
                    "destination": [ "obj-22", 0 ],
                    "source": [ "obj-46", 1 ]
                }
            },
            {
                "patchline": {
                    "destination": [ "obj-28", 0 ],
                    "source": [ "obj-46", 0 ]
                }
            },
            {
                "patchline": {
                    "destination": [ "obj-55", 0 ],
                    "source": [ "obj-48", 0 ]
                }
            },
            {
                "patchline": {
                    "destination": [ "obj-46", 3 ],
                    "source": [ "obj-49", 1 ]
                }
            },
            {
                "patchline": {
                    "destination": [ "obj-48", 0 ],
                    "source": [ "obj-49", 0 ]
                }
            },
            {
                "patchline": {
                    "destination": [ "obj-72", 0 ],
                    "source": [ "obj-5", 1 ]
                }
            },
            {
                "patchline": {
                    "destination": [ "obj-55", 0 ],
                    "source": [ "obj-51", 0 ]
                }
            },
            {
                "patchline": {
                    "destination": [ "obj-22", 0 ],
                    "midpoints": [ 233.78571462631226, 115.78571486473083, 656.1571429252625, 115.78571486473083 ],
                    "order": 0,
                    "source": [ "obj-53", 0 ]
                }
            },
            {
                "patchline": {
                    "destination": [ "obj-35", 0 ],
                    "source": [ "obj-53", 1 ]
                }
            },
            {
                "patchline": {
                    "destination": [ "obj-9", 0 ],
                    "midpoints": [ 233.78571462631226, 115.78571486473083, 22.5, 115.78571486473083 ],
                    "order": 1,
                    "source": [ "obj-53", 0 ]
                }
            },
            {
                "patchline": {
                    "destination": [ "obj-30", 0 ],
                    "order": 0,
                    "source": [ "obj-54", 0 ]
                }
            },
            {
                "patchline": {
                    "destination": [ "obj-49", 0 ],
                    "order": 2,
                    "source": [ "obj-54", 0 ]
                }
            },
            {
                "patchline": {
                    "destination": [ "obj-92", 0 ],
                    "order": 1,
                    "source": [ "obj-54", 0 ]
                }
            },
            {
                "patchline": {
                    "destination": [ "obj-59", 0 ],
                    "source": [ "obj-55", 0 ]
                }
            },
            {
                "patchline": {
                    "destination": [ "obj-64", 0 ],
                    "source": [ "obj-57", 0 ]
                }
            },
            {
                "patchline": {
                    "destination": [ "obj-71", 0 ],
                    "source": [ "obj-6", 0 ]
                }
            },
            {
                "patchline": {
                    "destination": [ "obj-80", 0 ],
                    "source": [ "obj-63", 0 ]
                }
            },
            {
                "patchline": {
                    "destination": [ "obj-63", 1 ],
                    "source": [ "obj-64", 1 ]
                }
            },
            {
                "patchline": {
                    "destination": [ "obj-63", 0 ],
                    "source": [ "obj-64", 0 ]
                }
            },
            {
                "patchline": {
                    "destination": [ "obj-55", 0 ],
                    "source": [ "obj-67", 0 ]
                }
            },
            {
                "patchline": {
                    "destination": [ "obj-55", 0 ],
                    "source": [ "obj-68", 0 ]
                }
            },
            {
                "patchline": {
                    "destination": [ "obj-55", 0 ],
                    "source": [ "obj-69", 0 ]
                }
            },
            {
                "patchline": {
                    "destination": [ "obj-55", 0 ],
                    "source": [ "obj-7", 0 ]
                }
            },
            {
                "patchline": {
                    "destination": [ "obj-55", 0 ],
                    "source": [ "obj-71", 0 ]
                }
            },
            {
                "patchline": {
                    "destination": [ "obj-55", 0 ],
                    "source": [ "obj-72", 0 ]
                }
            },
            {
                "patchline": {
                    "destination": [ "obj-55", 0 ],
                    "source": [ "obj-73", 0 ]
                }
            },
            {
                "patchline": {
                    "destination": [ "obj-10", 0 ],
                    "source": [ "obj-8", 0 ]
                }
            },
            {
                "patchline": {
                    "destination": [ "obj-81", 0 ],
                    "source": [ "obj-80", 0 ]
                }
            },
            {
                "patchline": {
                    "destination": [ "obj-82", 0 ],
                    "source": [ "obj-81", 0 ]
                }
            },
            {
                "patchline": {
                    "destination": [ "obj-86", 0 ],
                    "source": [ "obj-84", 0 ]
                }
            },
            {
                "patchline": {
                    "destination": [ "obj-87", 0 ],
                    "source": [ "obj-86", 0 ]
                }
            },
            {
                "patchline": {
                    "destination": [ "obj-15", 0 ],
                    "source": [ "obj-9", 0 ]
                }
            },
            {
                "patchline": {
                    "destination": [ "obj-12", 0 ],
                    "source": [ "obj-92", 1 ]
                }
            },
            {
                "patchline": {
                    "destination": [ "obj-70", 0 ],
                    "source": [ "obj-92", 0 ]
                }
            }
        ]
    }
}