{
	"patcher" : 	{
		"fileversion" : 1,
		"appversion" : 		{
			"major" : 8,
			"minor" : 5,
			"revision" : 0,
			"architecture" : "x64",
			"modernui" : 1
		}
,
		"classnamespace" : "box",
		"rect" : [ 626.0, 186.0, 1171.0, 1032.0 ],
		"bglocked" : 0,
		"openinpresentation" : 0,
		"default_fontsize" : 12.0,
		"default_fontface" : 0,
		"default_fontname" : "Arial",
		"gridonopen" : 1,
		"gridsize" : [ 15.0, 15.0 ],
		"gridsnaponopen" : 1,
		"objectsnaponopen" : 1,
		"statusbarvisible" : 2,
		"toolbarvisible" : 1,
		"lefttoolbarpinned" : 0,
		"toptoolbarpinned" : 0,
		"righttoolbarpinned" : 0,
		"bottomtoolbarpinned" : 0,
		"toolbars_unpinned_last_save" : 0,
		"tallnewobj" : 0,
		"boxanimatetime" : 200,
		"enablehscroll" : 1,
		"enablevscroll" : 1,
		"devicewidth" : 0.0,
		"description" : "",
		"digest" : "",
		"tags" : "",
		"style" : "",
		"subpatcher_template" : "",
		"assistshowspatchername" : 0,
		"boxes" : [ 			{
				"box" : 				{
					"id" : "obj-9",
					"maxclass" : "newobj",
					"numinlets" : 1,
					"numoutlets" : 1,
					"outlettype" : [ "bang" ],
					"patching_rect" : [ 338.0, 549.3582763671875, 58.0, 22.0 ],
					"text" : "loadbang"
				}

			}
, 			{
				"box" : 				{
					"fontface" : 0,
					"fontname" : "Arial",
					"fontsize" : 12.0,
					"id" : "obj-6",
					"maxclass" : "number~",
					"mode" : 2,
					"numinlets" : 2,
					"numoutlets" : 2,
					"outlettype" : [ "signal", "float" ],
					"patching_rect" : [ 306.0, 328.3582763671875, 56.0, 22.0 ],
					"sig" : 0.0
				}

			}
, 			{
				"box" : 				{
					"id" : "obj-5",
					"maxclass" : "newobj",
					"numinlets" : 2,
					"numoutlets" : 1,
					"outlettype" : [ "signal" ],
					"patching_rect" : [ 306.0, 292.0, 125.0, 22.0 ],
					"text" : "round~ 1. @nearest 0"
				}

			}
, 			{
				"box" : 				{
					"id" : "obj-4",
					"maxclass" : "newobj",
					"numinlets" : 6,
					"numoutlets" : 1,
					"outlettype" : [ "signal" ],
					"patching_rect" : [ 306.0, 264.0, 108.0, 22.0 ],
					"text" : "scale~ -1. 1. 0. 12."
				}

			}
, 			{
				"box" : 				{
					"id" : "obj-3",
					"maxclass" : "newobj",
					"numinlets" : 2,
					"numoutlets" : 1,
					"outlettype" : [ "signal" ],
					"patching_rect" : [ 306.0, 236.0, 35.0, 22.0 ],
					"text" : "sah~"
				}

			}
, 			{
				"box" : 				{
					"id" : "obj-2",
					"maxclass" : "newobj",
					"numinlets" : 1,
					"numoutlets" : 1,
					"outlettype" : [ "signal" ],
					"patching_rect" : [ 306.0, 201.3582763671875, 44.0, 22.0 ],
					"text" : "noise~"
				}

			}
, 			{
				"box" : 				{
					"editor_rect" : [ 100.0, 100.0, 300.0, 300.0 ],
					"embed" : 1,
					"id" : "obj-1",
					"maxclass" : "newobj",
					"numinlets" : 1,
					"numoutlets" : 1,
					"outlettype" : [ "signal" ],
					"patching_rect" : [ 210.666666666666657, 357.3582763671875, 325.0, 22.0 ],
					"saved_object_attributes" : 					{
						"name" : "durations",
						"parameter_enable" : 0,
						"parameter_mappable" : 0,
						"range" : 500,
						"size" : 12
					}
,
					"showeditor" : 1,
					"size" : 12,
					"table_data" : [ 0, 101, 136, 184, 373, 405, 351, 226, 190, 169, 215, 321, 267 ],
					"text" : "table~ @name durations @embed 1 @size 12 @range 500"
				}

			}
, 			{
				"box" : 				{
					"id" : "obj-154",
					"maxclass" : "newobj",
					"numinlets" : 8,
					"numoutlets" : 1,
					"outlettype" : [ "multichannelsignal" ],
					"patching_rect" : [ 195.0, 479.3582763671875, 92.5, 22.0 ],
					"text" : "mc.pack~ 8"
				}

			}
, 			{
				"box" : 				{
					"id" : "obj-152",
					"maxclass" : "live.scope~",
					"numinlets" : 2,
					"numoutlets" : 1,
					"outlettype" : [ "bang" ],
					"patching_rect" : [ 5.5, 512.3582763671875, 184.0, 68.0 ],
					"range" : [ -0.1, 1.1 ]
				}

			}
, 			{
				"box" : 				{
					"id" : "obj-151",
					"maxclass" : "newobj",
					"numinlets" : 2,
					"numoutlets" : 1,
					"outlettype" : [ "signal" ],
					"patching_rect" : [ 295.0, 408.3582763671875, 39.0, 22.0 ],
					"text" : "+~ 48"
				}

			}
, 			{
				"box" : 				{
					"fontface" : 0,
					"fontname" : "Arial",
					"fontsize" : 12.0,
					"id" : "obj-149",
					"maxclass" : "number~",
					"mode" : 2,
					"numinlets" : 2,
					"numoutlets" : 2,
					"outlettype" : [ "signal", "float" ],
					"patching_rect" : [ 231.75, 328.3582763671875, 56.0, 22.0 ],
					"sig" : 0.0
				}

			}
, 			{
				"box" : 				{
					"id" : "obj-148",
					"maxclass" : "newobj",
					"numinlets" : 1,
					"numoutlets" : 2,
					"outlettype" : [ "signal", "int" ],
					"patching_rect" : [ 246.75, 201.3582763671875, 41.0, 22.0 ],
					"text" : "what~"
				}

			}
, 			{
				"box" : 				{
					"id" : "obj-147",
					"maxclass" : "newobj",
					"numinlets" : 2,
					"numoutlets" : 1,
					"outlettype" : [ "signal" ],
					"patching_rect" : [ 210.75, 292.3582763671875, 55.0, 22.0 ],
					"text" : "+=~"
				}

			}
, 			{
				"box" : 				{
					"id" : "obj-146",
					"maxclass" : "live.scope~",
					"numinlets" : 2,
					"numoutlets" : 1,
					"outlettype" : [ "bang" ],
					"patching_rect" : [ 5.5, 297.3582763671875, 184.0, 68.0 ],
					"range" : [ -0.1, 1.1 ]
				}

			}
, 			{
				"box" : 				{
					"id" : "obj-145",
					"maxclass" : "live.scope~",
					"numinlets" : 2,
					"numoutlets" : 1,
					"outlettype" : [ "bang" ],
					"patching_rect" : [ 5.5, 155.3582763671875, 184.0, 68.0 ],
					"range" : [ -0.1, 1.1 ]
				}

			}
, 			{
				"box" : 				{
					"id" : "obj-144",
					"maxclass" : "newobj",
					"numinlets" : 1,
					"numoutlets" : 2,
					"outlettype" : [ "signal", "int" ],
					"patching_rect" : [ 195.0, 201.3582763671875, 41.0, 22.0 ],
					"text" : "what~"
				}

			}
, 			{
				"box" : 				{
					"id" : "obj-143",
					"maxclass" : "message",
					"numinlets" : 2,
					"numoutlets" : 1,
					"outlettype" : [ "" ],
					"patching_rect" : [ 296.0, 152.3582763671875, 55.0, 22.0 ],
					"text" : "getrow 0"
				}

			}
, 			{
				"box" : 				{
					"id" : "obj-141",
					"maxclass" : "matrixctrl",
					"numinlets" : 1,
					"numoutlets" : 2,
					"outlettype" : [ "list", "list" ],
					"parameter_enable" : 0,
					"patching_rect" : [ 296.0, 101.3582763671875, 193.0, 46.0 ],
					"rows" : 1
				}

			}
, 			{
				"box" : 				{
					"id" : "obj-140",
					"maxclass" : "newobj",
					"numinlets" : 1,
					"numoutlets" : 1,
					"outlettype" : [ "" ],
					"patching_rect" : [ 389.0, 152.3582763671875, 100.0, 22.0 ],
					"text" : "p.gatelist-to-what"
				}

			}
, 			{
				"box" : 				{
					"editor_rect" : [ 1286.0, 197.0, 300.0, 300.0 ],
					"embed" : 1,
					"id" : "obj-124",
					"maxclass" : "newobj",
					"numinlets" : 1,
					"numoutlets" : 1,
					"outlettype" : [ "signal" ],
					"patching_rect" : [ 295.0, 384.3582763671875, 298.0, 22.0 ],
					"saved_object_attributes" : 					{
						"name" : "notes",
						"parameter_enable" : 0,
						"parameter_mappable" : 0,
						"range" : 24,
						"size" : 12
					}
,
					"showeditor" : 1,
					"size" : 12,
					"table_data" : [ 0, 14, 12, 17, 11, 15, 12, 21, 6, 9, 16, 12, 7 ],
					"text" : "table~ @name notes @embed 1 @size 12 @range 24"
				}

			}
, 			{
				"box" : 				{
					"id" : "obj-117",
					"lastchannelcount" : 0,
					"maxclass" : "live.gain~",
					"numinlets" : 2,
					"numoutlets" : 5,
					"orientation" : 1,
					"outlettype" : [ "signal", "signal", "", "float", "list" ],
					"parameter_enable" : 1,
					"patching_rect" : [ 195.0, 609.3582763671875, 119.0, 36.0 ],
					"saved_attribute_attributes" : 					{
						"valueof" : 						{
							"parameter_initial" : [ -70.0 ],
							"parameter_initial_enable" : 1,
							"parameter_longname" : "live.gain~[4]",
							"parameter_mmax" : 6.0,
							"parameter_mmin" : -70.0,
							"parameter_shortname" : "live.gain~[1]",
							"parameter_type" : 0,
							"parameter_unitstyle" : 4
						}

					}
,
					"showname" : 0,
					"varname" : "live.gain~[1]"
				}

			}
, 			{
				"box" : 				{
					"id" : "obj-24",
					"linecount" : 2,
					"maxclass" : "message",
					"numinlets" : 2,
					"numoutlets" : 1,
					"outlettype" : [ "" ],
					"patching_rect" : [ 338.0, 576.716552734375, 124.0, 35.0 ],
					"text" : "plug DLSMusicDevice"
				}

			}
, 			{
				"box" : 				{
					"autosave" : 1,
					"bgmode" : 0,
					"border" : 0,
					"clickthrough" : 0,
					"id" : "obj-121",
					"maxclass" : "newobj",
					"numinlets" : 2,
					"numoutlets" : 8,
					"offset" : [ 0.0, 0.0 ],
					"outlettype" : [ "signal", "signal", "", "list", "int", "", "", "" ],
					"patching_rect" : [ 195.0, 549.3582763671875, 92.5, 22.0 ],
					"save" : [ "#N", "vst~", "loaduniqueid", 0, "prefer", "VST", ";" ],
					"saved_attribute_attributes" : 					{
						"valueof" : 						{
							"parameter_invisible" : 1,
							"parameter_longname" : "vst~[3]",
							"parameter_shortname" : "vst~",
							"parameter_type" : 3
						}

					}
,
					"saved_object_attributes" : 					{
						"parameter_enable" : 1,
						"parameter_mappable" : 0
					}
,
					"snapshot" : 					{
						"filetype" : "C74Snapshot",
						"version" : 2,
						"minorversion" : 0,
						"name" : "snapshotlist",
						"origin" : "vst~",
						"type" : "list",
						"subtype" : "Undefined",
						"embed" : 1,
						"snapshot" : 						{
							"pluginname" : "DLSMusicDevice.auinfo",
							"plugindisplayname" : "DLSMusicDevice",
							"pluginsavedname" : "",
							"pluginsaveduniqueid" : 1684828960,
							"version" : 1,
							"isbank" : 0,
							"isbase64" : 1,
							"blob" : "912.hAGaoMGcv.S2AHv.DTfAGfPBJr.CM3vCPDADRLAEUXQFZrAViAWcsv1agQFUtEVakckckI2bo8laeAwD0MWYsjlazUlbtEFasHWY1Ulbh4EYoM2ZsLGcxUVXsklam4kbk4FYkIWKwUWXrkFc4QEc4AWYTQVXzEFWsEla0YVXiQWcxUlbeAwClkFak0hbkYVYxUlaiU1bWMWchQWdvUFUBElaqwUYrUVak4Fcs3VXsUlH.....fUUtQWZzwVYjAA.PD.D+IQX00VcOAAI..............v...............P..........H......RDFbvwVzWfwVyIVKlkFak0hbkY1WPP0KSk2bzUVauvTZhIWXxk2KC8Vav8lak4Fcy8xPuIWYAUGYo8lKi8Vav8lak4FcuLzatQWYtQ2buHUYy8VcxMVYy8xYy8UZtMGcxUWak4Fcy4BYrMmDjw1bf7TDAfJ.....AfJ.B...LzTXiklaz81bnABRDA........................fPDAP.+++++KwYy8UZtMGcxUWak4Fcy4BYrMG...........................................................v+++++................+++++C..J.xX0A................PBRU1buUmbiU1b..f..T0K5LUdyQWYsoCSoIlbgIWd5LzasA2atUlazMmNC8lbkETcjk1atL1asA2atUlazoyPu4Fck4FcyoiTkM2a0I2XkMmNmM2Wo41bzIWcsUlazMmKjw1b..fC.XB.R.vY.LG.eAPZ.3F.yA.c.HG.0APa.TF.tA.c.LG.t..Y.vF.yAvC.nA.L.PS.DF.iAPZ.3F.zAva.LG.nA.H.fD.DAfD.L0T4MGck01KLklXxElb48xPu0Fbu4VYtQ2buLzaxUVP0QVZu4xXu0Fbu4VYtQ2KC8lazUlazM2KRU1buUmbiU1bub1beklayQmb00VYtQ2btPFayA..S.P.u.v++C..QyQGQIizd7AHgDELQEiVyQWYxU1afzVZ3YUctU2bkQF.H.vH.vB.w.PN.7D.dAPa.HG.2A.g.XI.dBvn..K.0Bfu..L.BC.w.jL.vCP8.fe.DDvVA.1.LLvCCDw.VL.FCnw.k........HP..........HB..................L.K"
						}
,
						"snapshotlist" : 						{
							"current_snapshot" : 0,
							"entries" : [ 								{
									"filetype" : "C74Snapshot",
									"version" : 2,
									"minorversion" : 0,
									"name" : "DLSMusicDevice",
									"origin" : "DLSMusicDevice.auinfo",
									"type" : "AudioUnit",
									"subtype" : "Instrument",
									"embed" : 1,
									"snapshot" : 									{
										"pluginname" : "DLSMusicDevice.auinfo",
										"plugindisplayname" : "DLSMusicDevice",
										"pluginsavedname" : "",
										"pluginsaveduniqueid" : 1684828960,
										"version" : 1,
										"isbank" : 0,
										"isbase64" : 1,
										"blob" : "912.hAGaoMGcv.S2AHv.DTfAGfPBJr.CM3vCPDADRLAEUXQFZrAViAWcsv1agQFUtEVakckckI2bo8laeAwD0MWYsjlazUlbtEFasHWY1Ulbh4EYoM2ZsLGcxUVXsklam4kbk4FYkIWKwUWXrkFc4QEc4AWYTQVXzEFWsEla0YVXiQWcxUlbeAwClkFak0hbkYVYxUlaiU1bWMWchQWdvUFUBElaqwUYrUVak4Fcs3VXsUlH.....fUUtQWZzwVYjAA.PD.D+IQX00VcOAAI..............v...............P..........H......RDFbvwVzWfwVyIVKlkFak0hbkY1WPP0KSk2bzUVauvTZhIWXxk2KC8Vav8lak4Fcy8xPuIWYAUGYo8lKi8Vav8lak4FcuLzatQWYtQ2buHUYy8VcxMVYy8xYy8UZtMGcxUWak4Fcy4BYrMmDjw1bf7TDAfJ.....AfJ.B...LzTXiklaz81bnABRDA........................fPDAP.+++++KwYy8UZtMGcxUWak4Fcy4BYrMG...........................................................v+++++................+++++C..J.xX0A................PBRU1buUmbiU1b..f..T0K5LUdyQWYsoCSoIlbgIWd5LzasA2atUlazMmNC8lbkETcjk1atL1asA2atUlazoyPu4Fck4FcyoiTkM2a0I2XkMmNmM2Wo41bzIWcsUlazMmKjw1b..fC.XB.R.vY.LG.eAPZ.3F.yA.c.HG.0APa.TF.tA.c.LG.t..Y.vF.yAvC.nA.L.PS.DF.iAPZ.3F.zAva.LG.nA.H.fD.DAfD.L0T4MGck01KLklXxElb48xPu0Fbu4VYtQ2buLzaxUVP0QVZu4xXu0Fbu4VYtQ2KC8lazUlazM2KRU1buUmbiU1bub1beklayQmb00VYtQ2btPFayA..S.P.u.v++C..QyQGQIizd7AHgDELQEiVyQWYxU1afzVZ3YUctU2bkQF.H.vH.vB.w.PN.7D.dAPa.HG.2A.g.XI.dBvn..K.0Bfu..L.BC.w.jL.vCP8.fe.DDvVA.1.LLvCCDw.VL.FCnw.k........HP..........HB..................L.K"
									}
,
									"fileref" : 									{
										"name" : "DLSMusicDevice",
										"filename" : "DLSMusicDevice.maxsnap",
										"filepath" : "~/Documents/Max 8/Snapshots",
										"filepos" : -1,
										"snapshotfileid" : "ece66a64cfece7a6ec65e0a3869cdb33"
									}

								}
 ]
						}

					}
,
					"text" : "vst~",
					"varname" : "vst~[1]",
					"viewvisibility" : 0
				}

			}
, 			{
				"box" : 				{
					"id" : "obj-122",
					"local" : 1,
					"maxclass" : "ezdac~",
					"numinlets" : 2,
					"numoutlets" : 0,
					"patching_rect" : [ 195.0, 655.8582763671875, 44.0, 44.0 ],
					"prototypename" : "helpfile"
				}

			}
, 			{
				"box" : 				{
					"id" : "obj-116",
					"maxclass" : "newobj",
					"numinlets" : 2,
					"numoutlets" : 1,
					"outlettype" : [ "signal" ],
					"patching_rect" : [ 195.0, 92.3582763671875, 72.0, 22.0 ],
					"text" : "phasor~ 0.6"
				}

			}
, 			{
				"box" : 				{
					"id" : "obj-115",
					"maxclass" : "newobj",
					"numinlets" : 4,
					"numoutlets" : 2,
					"outlettype" : [ "signal", "bang" ],
					"patching_rect" : [ 195.0, 451.3582763671875, 66.0, 22.0 ],
					"text" : "ramp~ 100"
				}

			}
, 			{
				"box" : 				{
					"id" : "obj-114",
					"maxclass" : "newobj",
					"numinlets" : 3,
					"numoutlets" : 2,
					"outlettype" : [ "signal", "midievent" ],
					"patching_rect" : [ 195.0, 512.3582763671875, 219.0, 22.0 ],
					"text" : "mc.midiplayer~ @chans 8"
				}

			}
, 			{
				"box" : 				{
					"attr" : "triggermode",
					"id" : "obj-125",
					"maxclass" : "attrui",
					"numinlets" : 1,
					"numoutlets" : 1,
					"outlettype" : [ "" ],
					"parameter_enable" : 0,
					"patching_rect" : [ 337.0, 432.3582763671875, 179.0, 22.0 ]
				}

			}
, 			{
				"box" : 				{
					"attr" : "velcurve",
					"id" : "obj-126",
					"maxclass" : "attrui",
					"numinlets" : 1,
					"numoutlets" : 1,
					"outlettype" : [ "" ],
					"parameter_enable" : 0,
					"patching_rect" : [ 337.0, 455.3582763671875, 150.0, 22.0 ]
				}

			}
, 			{
				"box" : 				{
					"attr" : "defaultdur",
					"id" : "obj-153",
					"maxclass" : "attrui",
					"numinlets" : 1,
					"numoutlets" : 1,
					"outlettype" : [ "" ],
					"parameter_enable" : 0,
					"patching_rect" : [ 338.0, 479.3582763671875, 150.0, 22.0 ]
				}

			}
, 			{
				"box" : 				{
					"attr" : "lock",
					"id" : "obj-8",
					"maxclass" : "attrui",
					"numinlets" : 1,
					"numoutlets" : 1,
					"outlettype" : [ "" ],
					"parameter_enable" : 0,
					"patching_rect" : [ 195.0, 62.358276000000004, 150.0, 22.0 ]
				}

			}
 ],
		"lines" : [ 			{
				"patchline" : 				{
					"destination" : [ "obj-115", 1 ],
					"source" : [ "obj-1", 0 ]
				}

			}
, 			{
				"patchline" : 				{
					"destination" : [ "obj-121", 0 ],
					"source" : [ "obj-114", 0 ]
				}

			}
, 			{
				"patchline" : 				{
					"destination" : [ "obj-152", 0 ],
					"order" : 1,
					"source" : [ "obj-115", 0 ]
				}

			}
, 			{
				"patchline" : 				{
					"destination" : [ "obj-154", 0 ],
					"order" : 0,
					"source" : [ "obj-115", 0 ]
				}

			}
, 			{
				"patchline" : 				{
					"destination" : [ "obj-144", 0 ],
					"order" : 1,
					"source" : [ "obj-116", 0 ]
				}

			}
, 			{
				"patchline" : 				{
					"destination" : [ "obj-145", 0 ],
					"order" : 2,
					"source" : [ "obj-116", 0 ]
				}

			}
, 			{
				"patchline" : 				{
					"destination" : [ "obj-148", 0 ],
					"order" : 0,
					"source" : [ "obj-116", 0 ]
				}

			}
, 			{
				"patchline" : 				{
					"destination" : [ "obj-122", 1 ],
					"source" : [ "obj-117", 1 ]
				}

			}
, 			{
				"patchline" : 				{
					"destination" : [ "obj-122", 0 ],
					"source" : [ "obj-117", 0 ]
				}

			}
, 			{
				"patchline" : 				{
					"destination" : [ "obj-117", 1 ],
					"source" : [ "obj-121", 1 ]
				}

			}
, 			{
				"patchline" : 				{
					"destination" : [ "obj-117", 0 ],
					"source" : [ "obj-121", 0 ]
				}

			}
, 			{
				"patchline" : 				{
					"destination" : [ "obj-151", 0 ],
					"source" : [ "obj-124", 0 ]
				}

			}
, 			{
				"patchline" : 				{
					"destination" : [ "obj-114", 0 ],
					"source" : [ "obj-125", 0 ]
				}

			}
, 			{
				"patchline" : 				{
					"destination" : [ "obj-114", 0 ],
					"source" : [ "obj-126", 0 ]
				}

			}
, 			{
				"patchline" : 				{
					"destination" : [ "obj-144", 0 ],
					"source" : [ "obj-140", 0 ]
				}

			}
, 			{
				"patchline" : 				{
					"destination" : [ "obj-140", 0 ],
					"source" : [ "obj-141", 1 ]
				}

			}
, 			{
				"patchline" : 				{
					"destination" : [ "obj-143", 0 ],
					"source" : [ "obj-141", 0 ]
				}

			}
, 			{
				"patchline" : 				{
					"destination" : [ "obj-141", 0 ],
					"midpoints" : [ 305.5, 184.3582763671875, 290.5, 184.3582763671875, 290.5, 90.3582763671875, 305.5, 90.3582763671875 ],
					"source" : [ "obj-143", 0 ]
				}

			}
, 			{
				"patchline" : 				{
					"destination" : [ "obj-115", 0 ],
					"order" : 2,
					"source" : [ "obj-144", 0 ]
				}

			}
, 			{
				"patchline" : 				{
					"destination" : [ "obj-146", 0 ],
					"order" : 3,
					"source" : [ "obj-144", 0 ]
				}

			}
, 			{
				"patchline" : 				{
					"destination" : [ "obj-147", 0 ],
					"order" : 1,
					"source" : [ "obj-144", 0 ]
				}

			}
, 			{
				"patchline" : 				{
					"destination" : [ "obj-3", 1 ],
					"order" : 0,
					"source" : [ "obj-144", 0 ]
				}

			}
, 			{
				"patchline" : 				{
					"destination" : [ "obj-1", 0 ],
					"order" : 2,
					"source" : [ "obj-147", 0 ]
				}

			}
, 			{
				"patchline" : 				{
					"destination" : [ "obj-124", 0 ],
					"order" : 0,
					"source" : [ "obj-147", 0 ]
				}

			}
, 			{
				"patchline" : 				{
					"destination" : [ "obj-149", 0 ],
					"order" : 1,
					"source" : [ "obj-147", 0 ]
				}

			}
, 			{
				"patchline" : 				{
					"destination" : [ "obj-147", 1 ],
					"source" : [ "obj-148", 0 ]
				}

			}
, 			{
				"patchline" : 				{
					"destination" : [ "obj-114", 1 ],
					"source" : [ "obj-151", 0 ]
				}

			}
, 			{
				"patchline" : 				{
					"destination" : [ "obj-114", 0 ],
					"source" : [ "obj-153", 0 ]
				}

			}
, 			{
				"patchline" : 				{
					"destination" : [ "obj-114", 0 ],
					"source" : [ "obj-154", 0 ]
				}

			}
, 			{
				"patchline" : 				{
					"destination" : [ "obj-3", 0 ],
					"source" : [ "obj-2", 0 ]
				}

			}
, 			{
				"patchline" : 				{
					"destination" : [ "obj-121", 0 ],
					"source" : [ "obj-24", 0 ]
				}

			}
, 			{
				"patchline" : 				{
					"destination" : [ "obj-4", 0 ],
					"source" : [ "obj-3", 0 ]
				}

			}
, 			{
				"patchline" : 				{
					"destination" : [ "obj-5", 0 ],
					"source" : [ "obj-4", 0 ]
				}

			}
, 			{
				"patchline" : 				{
					"destination" : [ "obj-1", 0 ],
					"order" : 1,
					"source" : [ "obj-5", 0 ]
				}

			}
, 			{
				"patchline" : 				{
					"destination" : [ "obj-6", 0 ],
					"order" : 0,
					"source" : [ "obj-5", 0 ]
				}

			}
, 			{
				"patchline" : 				{
					"destination" : [ "obj-116", 0 ],
					"source" : [ "obj-8", 0 ]
				}

			}
, 			{
				"patchline" : 				{
					"destination" : [ "obj-24", 0 ],
					"source" : [ "obj-9", 0 ]
				}

			}
 ],
		"parameters" : 		{
			"obj-117" : [ "live.gain~[4]", "live.gain~[1]", 0 ],
			"obj-121" : [ "vst~[3]", "vst~", 0 ],
			"parameterbanks" : 			{
				"0" : 				{
					"index" : 0,
					"name" : "",
					"parameters" : [ "-", "-", "-", "-", "-", "-", "-", "-" ]
				}

			}
,
			"inherited_shortname" : 1
		}
,
		"dependency_cache" : [ 			{
				"name" : "DLSMusicDevice.maxsnap",
				"bootpath" : "~/Documents/Max 8/Snapshots",
				"patcherrelativepath" : "../../Snapshots",
				"type" : "mx@s",
				"implicit" : 1
			}
, 			{
				"name" : "p.gatelist-to-what.maxpat",
				"bootpath" : "~/Documents/Max 8/Packages/seq/patchers/_utils/utils",
				"patcherrelativepath" : "../../Packages/seq/patchers/_utils/utils",
				"type" : "JSON",
				"implicit" : 1
			}
 ],
		"autosave" : 0
	}

}
