{
	"patcher" : 	{
		"fileversion" : 1,
		"appversion" : 		{
			"major" : 9,
			"minor" : 0,
			"revision" : 7,
			"architecture" : "x64",
			"modernui" : 1
		}
,
		"classnamespace" : "dsp.gen",
		"rect" : [ 354.0, 207.0, 1037.0, 699.0 ],
		"gridsize" : [ 15.0, 15.0 ],
		"integercoordinates" : 1,
		"boxes" : [ 			{
				"box" : 				{
					"id" : "obj-2",
					"maxclass" : "newobj",
					"numinlets" : 0,
					"numoutlets" : 1,
					"outlettype" : [ "" ],
					"patching_rect" : [ 431.0, 14.0, 113.0, 22.0 ],
					"text" : "in 2 @comment trig"
				}

			}
, 			{
				"box" : 				{
					"id" : "obj-1",
					"maxclass" : "newobj",
					"numinlets" : 0,
					"numoutlets" : 1,
					"outlettype" : [ "" ],
					"patching_rect" : [ 50.0, 14.0, 192.0, 22.0 ],
					"text" : "in 1 @comment \"signal to smooth\""
				}

			}
, 			{
				"box" : 				{
					"code" : "Param slidetime(150, default=150, min=0);\r\nHistory ramp(0);\r\n\r\nx = in1;\r\ntrig = bool(in2);\r\n\r\nsampleDelta = delta(x);\r\nlatchedDelta = latch(sampleDelta, trig);\r\n\r\nrampIncr = -1/slidetime;\r\nramp = clip(trig ? 1 : ramp + rampIncr, 0, 1);\r\n\r\nrampDelta = latchedDelta * ramp;\r\n\r\nout1 = dcblock(x - rampDelta);",
					"fontface" : 0,
					"fontname" : "<Monospaced>",
					"fontsize" : 12.0,
					"id" : "obj-3",
					"maxclass" : "codebox",
					"numinlets" : 2,
					"numoutlets" : 1,
					"outlettype" : [ "" ],
					"patching_rect" : [ 51.0, 89.0, 399.0, 257.0 ]
				}

			}
, 			{
				"box" : 				{
					"id" : "obj-4",
					"maxclass" : "newobj",
					"numinlets" : 1,
					"numoutlets" : 0,
					"patching_rect" : [ 51.0, 382.0, 199.0, 22.0 ],
					"text" : "out 1 @comment \"smoothed signal\""
				}

			}
 ],
		"lines" : [ 			{
				"patchline" : 				{
					"destination" : [ "obj-3", 0 ],
					"source" : [ "obj-1", 0 ]
				}

			}
, 			{
				"patchline" : 				{
					"destination" : [ "obj-3", 1 ],
					"source" : [ "obj-2", 0 ]
				}

			}
, 			{
				"patchline" : 				{
					"destination" : [ "obj-4", 0 ],
					"source" : [ "obj-3", 0 ]
				}

			}
 ]
	}

}
